<svg width="26" height="26" viewBox="0 0 26 26" fill="none" xmlns="http://www.w3.org/2000/svg">
<path d="M0 13C0 5.8203 5.8203 0 13 0C20.1797 0 26 5.8203 26 13C26 20.1797 20.1797 26 13 26C5.8203 26 0 20.1797 0 13Z" fill="#5BCCA2"/>
<path d="M14.5721 17.7455C14.4983 17.5788 14.4338 17.409 14.3785 17.2362C14.3231 17.0571 14.2801 16.8781 14.2494 16.699C13.9297 17.0695 13.5393 17.3689 13.0782 17.5973C12.6233 17.8258 12.1007 17.94 11.5105 17.94C10.533 17.94 9.75533 17.6745 9.17744 17.1436C8.6057 16.6064 8.31982 15.8779 8.31982 14.958C8.31982 14.0195 8.69484 13.2941 9.44487 12.7817C10.1949 12.2692 11.2954 12.013 12.7462 12.013H14.1203V11.0314C14.1203 10.5498 13.9819 10.1763 13.7053 9.91079C13.4286 9.64531 13.0198 9.51257 12.4788 9.51257C12.1714 9.51257 11.8978 9.54961 11.6581 9.6237C11.4183 9.69161 11.2247 9.77496 11.0771 9.87374L10.9019 10.948H8.87312L8.88235 8.72539C9.37417 8.392 9.93669 8.11108 10.5699 7.88265C11.2093 7.65421 11.904 7.53999 12.654 7.53999C13.8897 7.53999 14.8918 7.8456 15.6603 8.45682C16.4349 9.06187 16.8222 9.92622 16.8222 11.0499V15.1895C16.8222 15.3439 16.8222 15.4889 16.8222 15.6248C16.8284 15.7606 16.8407 15.8902 16.8591 16.0137L17.6798 16.1249V17.7455H14.5721ZM12.239 15.9396C12.6448 15.9396 13.0137 15.8532 13.3456 15.6803C13.6776 15.5013 13.9358 15.279 14.1203 15.0135V13.4855H12.7462C12.1745 13.4855 11.7411 13.6213 11.446 13.893C11.1509 14.1585 11.0033 14.4795 11.0033 14.8561C11.0033 15.1957 11.1109 15.4612 11.3261 15.6525C11.5474 15.8439 11.8517 15.9396 12.239 15.9396Z" fill="black" fill-opacity="0.3"/>
<path d="M14.5721 16.9655C14.4983 16.7988 14.4338 16.629 14.3785 16.4561C14.3231 16.2771 14.2801 16.098 14.2494 15.919C13.9297 16.2894 13.5393 16.5889 13.0782 16.8173C12.6233 17.0457 12.1007 17.16 11.5105 17.16C10.533 17.16 9.75533 16.8945 9.17744 16.3635C8.6057 15.8264 8.31982 15.0979 8.31982 14.1779C8.31982 13.2395 8.69484 12.5141 9.44487 12.0016C10.1949 11.4892 11.2954 11.233 12.7462 11.233H14.1203V10.2513C14.1203 9.76976 13.9819 9.39623 13.7053 9.13075C13.4286 8.86527 13.0198 8.73253 12.4788 8.73253C12.1714 8.73253 11.8978 8.76958 11.6581 8.84366C11.4183 8.91158 11.2247 8.99493 11.0771 9.09371L10.9019 10.168H8.87312L8.88235 7.94536C9.37417 7.61196 9.93669 7.33105 10.5699 7.10261C11.2093 6.87418 11.904 6.75996 12.654 6.75996C13.8897 6.75996 14.8918 7.06557 15.6603 7.67679C16.4349 8.28184 16.8222 9.14619 16.8222 10.2698V14.4095C16.8222 14.5638 16.8222 14.7089 16.8222 14.8447C16.8284 14.9806 16.8407 15.1102 16.8591 15.2337L17.6798 15.3448V16.9655H14.5721ZM12.239 15.1596C12.6448 15.1596 13.0137 15.0732 13.3456 14.9003C13.6776 14.7213 13.9358 14.499 14.1203 14.2335V12.7055H12.7462C12.1745 12.7055 11.7411 12.8413 11.446 13.1129C11.1509 13.3784 11.0033 13.6995 11.0033 14.0761C11.0033 14.4156 11.1109 14.6811 11.3261 14.8725C11.5474 15.0639 11.8517 15.1596 12.239 15.1596Z" fill="white"/>
</svg>
